<svg width="637" height="64" viewBox="0 0 637 64" fill="none" xmlns="http://www.w3.org/2000/svg">
<path fill-rule="evenodd" clip-rule="evenodd" d="M65 61L55.5 6L67 2.5L76 45.5L88.5 28.5L96 40L103.5 5L115 10.5L103.5 62H95L87.5 47.5L75 62L65 61Z" fill="white"/>
<path fill-rule="evenodd" clip-rule="evenodd" d="M127.5 2.5L125.5 61H143L141 2.5H127.5Z" fill="white"/>
<path fill-rule="evenodd" clip-rule="evenodd" d="M197.5 3H150.5V12L167.5 13.5L163.5 62.5H179.5V15.5L196.5 16.5L197.5 3Z" fill="white"/>
<path fill-rule="evenodd" clip-rule="evenodd" d="M404 2H357V11L374 12.5L370 61.5H386V14.5L403 15.5L404 2Z" fill="white"/>
<path fill-rule="evenodd" clip-rule="evenodd" d="M263.5 61L260.5 5L275.5 7L276 24L294 26L294.5 2.5L310 5L306 61H295.5L294 39.5L274.5 36.5L274 61H263.5Z" fill="white"/>
<path fill-rule="evenodd" clip-rule="evenodd" d="M415 61.5L413 4.5L427 7.5L428.5 25.5L445.5 27.5L447 3L461.5 5.5L457.5 61.5H447L445.5 40L427 37L426.5 60.5L415 61.5Z" fill="white"/>
<path d="M593 61.5L591.5 3L631.5 2L626 14.5L606.5 13.5L604.5 25.5H629L628 34L604.5 36L606.5 50.5L634.5 46L635 58L593 61.5Z" fill="white"/>
<path fill-rule="evenodd" clip-rule="evenodd" d="M65 61L55.5 6L67 2.5L76 45.5L88.5 28.5L96 40L103.5 5L115 10.5L103.5 62H95L87.5 47.5L75 62L65 61Z" stroke="white" stroke-width="2"/>
<path fill-rule="evenodd" clip-rule="evenodd" d="M127.5 2.5L125.5 61H143L141 2.5H127.5Z" stroke="white" stroke-width="2"/>
<path fill-rule="evenodd" clip-rule="evenodd" d="M197.5 3H150.5V12L167.5 13.5L163.5 62.5H179.5V15.5L196.5 16.5L197.5 3Z" stroke="white" stroke-width="2"/>
<path fill-rule="evenodd" clip-rule="evenodd" d="M404 2H357V11L374 12.5L370 61.5H386V14.5L403 15.5L404 2Z" stroke="white" stroke-width="2"/>
<path fill-rule="evenodd" clip-rule="evenodd" d="M263.5 61L260.5 5L275.5 7L276 24L294 26L294.5 2.5L310 5L306 61H295.5L294 39.5L274.5 36.5L274 61H263.5Z" stroke="white" stroke-width="2"/>
<path fill-rule="evenodd" clip-rule="evenodd" d="M415 61.5L413 4.5L427 7.5L428.5 25.5L445.5 27.5L447 3L461.5 5.5L457.5 61.5H447L445.5 40L427 37L426.5 60.5L415 61.5Z" stroke="white" stroke-width="2"/>
<path d="M593 61.5L591.5 3L631.5 2L626 14.5L606.5 13.5L604.5 25.5H629L628 34L604.5 36L606.5 50.5L634.5 46L635 58L593 61.5Z" stroke="white" stroke-width="2"/>
<path fill-rule="evenodd" clip-rule="evenodd" d="M3 52L20.5 45V41L2 25.5L15 4.5H21.5L22 1H32V5H38L48 14.5L39 23.5L29.5 18V29.5L44.5 40L39.5 53L33 56V62H23.5V57L9 58.5L3 52ZM21.5 17L18.5 18L15.5 23L21 28L21.5 17ZM30 38.5L28.5 51.5L34.5 43.5L30 38.5Z" fill="white" stroke="white" stroke-width="2"/>
<path fill-rule="evenodd" clip-rule="evenodd" d="M206.5 46L205.5 14L212.5 3L239 2.5L251.5 10L244 24.5L229 16L217.5 32L227.5 45H235.5L242.5 41.5L250.5 52.5L236 59L225 60L206.5 46Z" fill="white" stroke="white" stroke-width="2"/>
<path fill-rule="evenodd" clip-rule="evenodd" d="M472 61.5L470.5 3L510.5 2L505 14.5L485.5 13.5L483.5 25.5H508L507 34L483.5 36L485.5 50.5L513.5 46L514 58L472 61.5Z" fill="white" stroke="white" stroke-width="2"/>
<path fill-rule="evenodd" clip-rule="evenodd" d="M522.5 61.5L532 2H544.5L551 13.5L557 4.5L568.5 7L582 58L568.5 60.5V48L561.5 31L550.5 44L539 25.5L537 61.5H522.5Z" fill="white" stroke="white" stroke-width="2"/>
</svg>
